<?xml version="1.0" encoding="utf-8"?>
<!-- Generator: Adobe Illustrator 16.0.4, SVG Export Plug-In . SVG Version: 6.00 Build 0)  -->
<!DOCTYPE svg PUBLIC "-//W3C//DTD SVG 1.1//EN" "http://www.w3.org/Graphics/SVG/1.1/DTD/svg11.dtd">
<svg version="1.1" id="Layer_1" xmlns="http://www.w3.org/2000/svg" xmlns:xlink="http://www.w3.org/1999/xlink" x="0px" y="0px"
	 width="960px" height="560px" viewBox="0 0 960 560" enable-background="new 0 0 960 560" xml:space="preserve">
<g>
	<g>
		<path fill="#FFFFFF" d="M483.174,286.924c0,0.391-0.137,0.723-0.41,0.996l-1.992,1.993c-0.274,0.273-0.606,0.41-0.997,0.41
			s-0.723-0.137-0.996-0.41l-4.309-4.308l-4.308,4.308c-0.273,0.273-0.605,0.41-0.996,0.41c-0.392,0-0.724-0.137-0.997-0.41
			l-1.992-1.993c-0.273-0.273-0.41-0.605-0.41-0.996s0.137-0.723,0.41-0.996l4.308-4.309l-4.308-4.308
			c-0.273-0.273-0.41-0.606-0.41-0.997s0.137-0.723,0.41-0.997l1.992-1.993c0.273-0.273,0.605-0.41,0.997-0.41
			c0.391,0,0.723,0.137,0.996,0.41l4.308,4.308l4.309-4.308c0.273-0.273,0.605-0.41,0.996-0.41s0.723,0.137,0.997,0.41l1.992,1.993
			c0.273,0.274,0.41,0.606,0.41,0.997s-0.137,0.723-0.41,0.997l-4.308,4.308l4.308,4.309
			C483.037,286.201,483.174,286.533,483.174,286.924z"/>
	</g>
</g>
<g>
</g>
<g>
</g>
<g>
</g>
<g>
</g>
<g>
</g>
<g>
</g>
<g>
</g>
<g>
</g>
<g>
</g>
<g>
</g>
<g>
</g>
<g>
</g>
<g>
</g>
<g>
</g>
<g>
</g>
</svg>
